<?xml version="1.0" standalone="no"?>
<!DOCTYPE svg PUBLIC "-//W3C//DTD SVG 20010904//EN"
 "http://www.w3.org/TR/2001/REC-SVG-20010904/DTD/svg10.dtd">
<svg version="1.0" xmlns="http://www.w3.org/2000/svg"
 width="64.000000pt" height="64.000000pt" viewBox="0 0 64.000000 64.000000"
 preserveAspectRatio="xMidYMid meet">

<g transform="translate(0.000000,64.000000) scale(0.100000,-0.100000)"
fill="#000000" stroke="none">
<path d="M390 514 c-69 -24 -171 -60 -227 -80 -57 -20 -103 -39 -103 -43 0 -4
45 -31 101 -61 l101 -55 51 -97 c29 -54 57 -98 62 -98 6 0 46 102 89 228 43
125 81 233 84 240 7 20 -26 13 -158 -34z m-14 -103 l-110 -110 -77 42 c-78 42
-78 42 -51 54 23 11 327 119 342 122 2 1 -44 -48 -104 -108z m62 -104 c-69
-198 -63 -194 -118 -89 l-33 63 103 104 c57 58 105 103 106 102 2 -1 -25 -82
-58 -180z"/>
</g>
</svg>
